<svg width="24" height="24" viewBox="0 0 24 24" fill="none" xmlns="http://www.w3.org/2000/svg">
<path d="M8.66343 18.4C8.33397 19.3322 7.44498 20 6.4 20C5.07452 20 4 18.9255 4 17.6C4 16.555 4.66785 15.666 5.6 15.3366V8.66343C4.66785 8.33397 4 7.44498 4 6.4C4 5.07452 5.07452 4 6.4 4C7.44498 4 8.33397 4.66785 8.66343 5.6H15.3366C15.666 4.66785 16.555 4 17.6 4C18.9255 4 20 5.07452 20 6.4C20 7.44498 19.3322 8.33397 18.4 8.66343V15.3366C19.3322 15.666 20 16.555 20 17.6C20 18.9255 18.9255 20 17.6 20C16.555 20 15.666 19.3322 15.3366 18.4H8.66343ZM8.66343 16.8H15.3366C15.5776 16.1181 16.1181 15.5776 16.8 15.3366V8.66343C16.1181 8.42241 15.5776 7.88193 15.3366 7.2H8.66343C8.42241 7.88193 7.88193 8.42241 7.2 8.66343V15.3366C7.88193 15.5776 8.42241 16.1181 8.66343 16.8ZM6.4 7.2C6.84182 7.2 7.2 6.84182 7.2 6.4C7.2 5.95818 6.84182 5.6 6.4 5.6C5.95818 5.6 5.6 5.95818 5.6 6.4C5.6 6.84182 5.95818 7.2 6.4 7.2ZM17.6 7.2C18.0418 7.2 18.4 6.84182 18.4 6.4C18.4 5.95818 18.0418 5.6 17.6 5.6C17.1582 5.6 16.8 5.95818 16.8 6.4C16.8 6.84182 17.1582 7.2 17.6 7.2ZM17.6 18.4C18.0418 18.4 18.4 18.0418 18.4 17.6C18.4 17.1582 18.0418 16.8 17.6 16.8C17.1582 16.8 16.8 17.1582 16.8 17.6C16.8 18.0418 17.1582 18.4 17.6 18.4ZM6.4 18.4C6.84182 18.4 7.2 18.0418 7.2 17.6C7.2 17.1582 6.84182 16.8 6.4 16.8C5.95818 16.8 5.6 17.1582 5.6 17.6C5.6 18.0418 5.95818 18.4 6.4 18.4Z" fill="#455A64"/>
<path d="M8 15V11.0765H9.06846L9.17621 11.6758H9.21212C9.42162 11.484 9.64908 11.3215 9.8945 11.1884C10.1399 11.0498 10.4242 10.9806 10.7475 10.9806C11.1126 10.9806 11.4059 11.0472 11.6274 11.1804C11.8548 11.3135 12.0254 11.5053 12.1392 11.7557C12.3786 11.5373 12.624 11.3535 12.8754 11.2043C13.1268 11.0552 13.4141 10.9806 13.7374 10.9806C14.2761 10.9806 14.6712 11.1377 14.9226 11.4521C15.1799 11.7664 15.3086 12.2059 15.3086 12.7705V15H13.9978V12.9224C13.9978 12.5708 13.9379 12.3257 13.8182 12.1872C13.7045 12.0434 13.5279 11.9715 13.2884 11.9715C13.0011 11.9715 12.6749 12.1419 12.3098 12.4829V15H10.9989V12.9224C10.9989 12.5708 10.942 12.3257 10.8283 12.1872C10.7205 12.0434 10.541 11.9715 10.2896 11.9715C10.0022 11.9715 9.67901 12.1419 9.31987 12.4829V15H8ZM13.5758 10.605V10.1495C13.8391 10.0057 14.0756 9.87253 14.2851 9.75C14.4946 9.62747 14.6592 9.50761 14.7789 9.39041C14.8986 9.27321 14.9585 9.15335 14.9585 9.03082C14.9585 8.91362 14.9256 8.82839 14.8597 8.77511C14.7998 8.71651 14.7041 8.68721 14.5724 8.68721C14.4766 8.68721 14.3779 8.71385 14.2761 8.76712C14.1743 8.8204 14.0756 8.89498 13.9798 8.99087L13.477 8.53539C13.6626 8.37024 13.8541 8.23973 14.0516 8.14384C14.2551 8.04795 14.4856 8 14.743 8C15.1081 8 15.3924 8.07991 15.596 8.23973C15.7995 8.39954 15.9012 8.59932 15.9012 8.83904C15.9012 8.9882 15.8563 9.12671 15.7666 9.25457C15.6768 9.38242 15.566 9.50228 15.4343 9.61416C15.3086 9.7207 15.1829 9.81659 15.0572 9.90183H16V10.605H13.5758Z" fill="#455A64"/>
</svg>
