<svg width="24" height="24" viewBox="0 0 24 24" fill="none" xmlns="http://www.w3.org/2000/svg">
<path d="M7.34518 6.16667H9.83333C10.1095 6.16667 10.3333 5.94281 10.3333 5.66667V5C10.3333 4.72386 10.1095 4.5 9.83333 4.5H5C4.72386 4.5 4.5 4.72386 4.5 5V9.83333C4.5 10.1095 4.72386 10.3333 5 10.3333H5.66667C5.94281 10.3333 6.16667 10.1095 6.16667 9.83333V7.34518L9.39052 10.569C9.58578 10.7643 9.90237 10.7643 10.0976 10.569L10.569 10.0976C10.7643 9.90237 10.7643 9.58578 10.569 9.39052L7.34518 6.16667ZM19.5 14.1667C19.5 13.8905 19.2761 13.6667 19 13.6667H18.3333C18.0572 13.6667 17.8333 13.8905 17.8333 14.1667V16.6548L14.6095 13.431C14.4142 13.2357 14.0976 13.2357 13.9024 13.431L13.431 13.9024C13.2357 14.0976 13.2357 14.4142 13.431 14.6095L16.6548 17.8333H14.1667C13.8905 17.8333 13.6667 18.0572 13.6667 18.3333V19C13.6667 19.2761 13.8905 19.5 14.1667 19.5H19C19.2761 19.5 19.5 19.2761 19.5 19V14.1667Z" fill="#455A64"/>
</svg>
