<svg width="24" height="24" viewBox="0 0 24 24" fill="none" xmlns="http://www.w3.org/2000/svg">
<path d="M12 5C15.9873 5 19.3045 8.01759 20 12C19.3045 15.9824 15.9873 19 12 19C8.01269 19 4.69547 15.9824 4 12C4.69547 8.01759 8.01269 5 12 5ZM12 17.4444C15.1321 17.4444 17.8122 15.1516 18.4906 12C17.8122 8.84847 15.1321 6.55556 12 6.55556C8.86787 6.55556 6.18777 8.84847 5.50935 12C6.18777 15.1516 8.86787 17.4444 12 17.4444ZM12 15.5C10.1622 15.5 8.6724 13.933 8.6724 12C8.6724 10.067 10.1622 8.5 12 8.5C13.8377 8.5 15.3276 10.067 15.3276 12C15.3276 13.933 13.8377 15.5 12 15.5ZM12 13.9444C13.021 13.9444 13.8487 13.0739 13.8487 12C13.8487 10.9261 13.021 10.0556 12 10.0556C10.979 10.0556 10.1513 10.9261 10.1513 12C10.1513 13.0739 10.979 13.9444 12 13.9444Z" fill="#455A64"/>
</svg>
