<svg width="24" height="24" viewBox="0 0 24 24" fill="none" xmlns="http://www.w3.org/2000/svg">
<path d="M6.55556 11.3004L8.11111 9.74483L12.3889 14.0226L15.1111 11.3004L17.4444 13.6337V6.55556H6.55556V11.3004ZM6.55556 13.5003V17.4444H8.96706L11.289 15.1225L8.11111 11.9447L6.55556 13.5003ZM11.1669 17.4444H17.4444V15.8336L15.1111 13.5003L11.1669 17.4444ZM5.77778 5H18.2222C18.6518 5 19 5.34823 19 5.77778V18.2222C19 18.6518 18.6518 19 18.2222 19H5.77778C5.34823 19 5 18.6518 5 18.2222V5.77778C5 5.34823 5.34823 5 5.77778 5ZM14.7222 10.4444C14.0779 10.4444 13.5556 9.92211 13.5556 9.27778C13.5556 8.63344 14.0779 8.11111 14.7222 8.11111C15.3665 8.11111 15.8889 8.63344 15.8889 9.27778C15.8889 9.92211 15.3665 10.4444 14.7222 10.4444Z" fill="black" fill-opacity="0.12"/>
</svg>
