<svg width="24" height="24" viewBox="0 0 24 24" fill="none" xmlns="http://www.w3.org/2000/svg">
<path d="M7.32899 14.3581L4.99348 16.6936L7.91286 19.613L19.0065 8.51931L16.0871 5.59993L14.3355 7.35156L15.5032 8.51931L14.3355 9.68708L13.1678 8.51931L11.4161 10.2709L13.1678 12.0226L12 13.1903L10.2484 11.4387L8.49674 13.1903L9.66449 14.3581L8.49674 15.5258L7.32899 14.3581ZM16.671 3.8483L20.7582 7.93544C21.0806 8.25791 21.0806 8.78072 20.7582 9.10319L8.49674 21.3646C8.17428 21.6871 7.65145 21.6871 7.32899 21.3646L3.24185 17.2775C2.91938 16.955 2.91938 16.4322 3.24185 16.1098L15.5032 3.8483C15.8257 3.52583 16.3485 3.52583 16.671 3.8483Z" fill="black" fill-opacity="0.12"/>
</svg>
