<svg width="24" height="24" viewBox="0 0 24 24" fill="none" xmlns="http://www.w3.org/2000/svg">
<path d="M20.8254 18.0576C21.1981 18.0576 21.5 18.3999 21.5 18.8226C21.5 19.2453 21.1981 19.5876 20.8254 19.5876L3.67461 19.5876C3.30186 19.5876 3 19.2453 3 18.8226C3 18.3999 3.30186 18.0576 3.67461 18.0576L20.8254 18.0576Z" fill="white"/>
<path d="M16.1834 5.84521C16.6323 5.84521 16.9901 6.04834 17.2506 6.30267C17.4982 6.54453 17.6806 6.85208 17.8212 7.14874C18.1008 7.73843 18.3143 8.50255 18.5051 9.19123C18.7063 9.91719 18.8871 10.5787 19.1064 11.0907C19.2148 11.3437 19.3168 11.5211 19.4078 11.6346C19.4776 11.7216 19.5199 11.7448 19.5294 11.7493C19.9458 11.8668 20.1884 12.2999 20.071 12.7163C19.9536 13.1326 19.5205 13.3753 19.1041 13.2579C18.7001 13.1439 18.4012 12.8838 18.1854 12.6145C17.9704 12.3464 17.8031 12.0264 17.6667 11.708C17.3964 11.077 17.1855 10.2971 16.995 9.60968C16.7942 8.88484 16.616 8.26246 16.406 7.81963C16.3095 7.61609 16.2268 7.49862 16.1689 7.43714C16.1649 7.44132 16.1598 7.4456 16.1551 7.45091C16.0792 7.53757 15.9802 7.70885 15.8744 8.00475C15.6613 8.60072 15.5149 9.41491 15.3373 10.3372C15.1692 11.2103 14.9715 12.187 14.6443 12.9465C14.3286 13.6789 13.7446 14.5323 12.6584 14.5323C11.8949 14.5323 11.3048 14.2958 10.8622 13.8813C10.4504 13.4957 10.2268 13.0084 10.075 12.6451C9.89752 12.2203 9.82299 11.9975 9.7025 11.8243C9.65737 11.7595 9.62942 11.741 9.62141 11.7363C9.6192 11.735 9.60112 11.724 9.54415 11.7218C9.51399 11.7474 9.45197 11.8201 9.36438 12.0056C9.1963 12.3615 9.06682 12.8646 8.91381 13.4766C8.7731 14.0395 8.60873 14.7116 8.36073 15.2369C8.12444 15.7372 7.65894 16.4203 6.78334 16.4203C6.35071 16.4203 6 16.0696 6 15.637C6 15.212 6.33838 14.8665 6.76039 14.8544C6.7891 14.8315 6.85295 14.761 6.94398 14.5683C7.11207 14.2123 7.24154 13.7093 7.39456 13.0972C7.53526 12.5344 7.69963 11.8623 7.94764 11.337C8.18392 10.8366 8.64943 10.1536 9.52502 10.1536C9.84438 10.1536 10.141 10.227 10.4048 10.3792C10.6632 10.5285 10.8497 10.7304 10.9877 10.9285C11.2342 11.2825 11.4047 11.7629 11.5209 12.0408C11.6628 12.3805 11.782 12.5961 11.9332 12.7377C12.0536 12.8505 12.2468 12.9656 12.6584 12.9656C12.7471 12.9656 12.9464 12.9287 13.2061 12.3261C13.454 11.7506 13.6236 10.947 13.7982 10.0404C13.9633 9.18267 14.1353 8.21669 14.3995 7.47768C14.5323 7.10626 14.7117 6.72097 14.977 6.41818C15.2604 6.09485 15.6636 5.84521 16.1834 5.84521Z" fill="white"/>
<path d="M5.74046 8.89789L5.57093 9.28658C5.4469 9.57114 5.0531 9.57114 4.92901 9.28658L4.75954 8.89789C4.45738 8.20483 3.91316 7.65303 3.23404 7.35115L2.71182 7.119C2.42939 6.99347 2.42939 6.58277 2.71182 6.45723L3.20482 6.23806C3.9014 5.92842 4.45539 5.3562 4.75232 4.6396L4.92639 4.21956C5.04774 3.92681 5.45226 3.92681 5.57354 4.21956L5.74761 4.6396C6.04461 5.3562 6.5986 5.92842 7.29518 6.23806L7.78818 6.45723C8.07061 6.58277 8.07061 6.99347 7.78818 7.119L7.26596 7.35115C6.58684 7.65303 6.04262 8.20483 5.74046 8.89789Z" fill="white"/>
</svg>
