<svg width="24" height="24" viewBox="0 0 24 24" fill="none" xmlns="http://www.w3.org/2000/svg">
<path d="M16.1667 17.8333H17.8333V13.6667H10.3333V6.16667H6.16667V7.83333H7.83333V9.5H6.16667V11.1667H8.66667V12.8333H6.16667V14.5H7.83333V16.1667H6.16667V17.8333H7.83333V16.1667H9.5V17.8333H11.1667V15.3333H12.8333V17.8333H14.5V16.1667H16.1667V17.8333ZM12 12H18.6667C19.1269 12 19.5 12.3731 19.5 12.8333V18.6667C19.5 19.1269 19.1269 19.5 18.6667 19.5H5.33333C4.8731 19.5 4.5 19.1269 4.5 18.6667V5.33333C4.5 4.8731 4.8731 4.5 5.33333 4.5H11.1667C11.6269 4.5 12 4.8731 12 5.33333V12Z" fill="white"/>
</svg>
